<?xml version="1.0" encoding="UTF-8" standalone="no"?>
<svg
   version="1.1"
   id="Layer_1"
   x="0px"
   y="0px"
   width="100%"
   viewBox="0 0 1529 442"
   enable-background="new 0 0 1529 442"
   xml:space="preserve"
   sodipodi:docname="bottom_shape.svg"
   inkscape:version="1.2.2 (732a01da63, 2022-12-09)"
   xmlns:inkscape="http://www.inkscape.org/namespaces/inkscape"
   xmlns:sodipodi="http://sodipodi.sourceforge.net/DTD/sodipodi-0.dtd"
   xmlns="http://www.w3.org/2000/svg"
   xmlns:svg="http://www.w3.org/2000/svg"><defs
   id="defs917" /><sodipodi:namedview
   id="namedview915"
   pagecolor="#ffffff"
   bordercolor="#000000"
   borderopacity="0.25"
   inkscape:showpageshadow="2"
   inkscape:pageopacity="0.0"
   inkscape:pagecheckerboard="0"
   inkscape:deskcolor="#d1d1d1"
   showgrid="false"
   inkscape:zoom="0.85676913"
   inkscape:cx="764.5"
   inkscape:cy="221.17977"
   inkscape:window-width="1920"
   inkscape:window-height="991"
   inkscape:window-x="-9"
   inkscape:window-y="-9"
   inkscape:window-maximized="1"
   inkscape:current-layer="Layer_1" />
<path
   fill="#FFFFFF"
   opacity="1.000000"
   stroke="none"
   d=" M1530.000000,115.000000   C1530.000000,224.312515 1530.000000,333.625031 1530.000000,442.968750   C1020.451233,442.968750 510.902435,442.968750 1.000000,442.968750   C1.000000,333.972229 1.000000,224.944061 1.356925,115.570190   C7.324997,127.183357 12.398029,139.432724 18.663235,151.038513   C30.438986,172.852188 46.764511,191.252548 65.271881,207.444473   C79.546722,219.933426 95.657585,230.241043 113.089973,237.869186   C127.665283,244.247086 142.718216,249.590836 157.754700,254.833054   C165.162125,257.415527 172.937820,259.890442 180.675079,260.377625   C196.096970,261.348663 211.607330,260.950897 227.081467,260.991058   C228.387268,260.994476 229.735703,260.122742 230.993942,259.512451   C233.271393,258.407776 235.375061,256.657440 237.763550,256.119873   C247.011215,254.038635 256.326660,252.244446 265.646179,250.499878   C282.181091,247.404602 298.770447,244.591721 315.275604,241.348206   C332.500214,237.963318 349.652924,234.212234 366.836029,230.616272   C380.690430,227.716919 394.561188,224.892593 408.392395,221.886368   C426.711884,217.904617 444.995209,213.756821 463.302917,209.720428   C478.375793,206.397202 493.489502,203.254288 508.533112,199.804688   C521.665222,196.793396 534.681763,193.273331 547.829163,190.334793   C559.738770,187.672882 571.739197,185.404236 583.730591,183.124969   C595.790344,180.832703 607.889282,178.746796 619.969116,176.559982   C629.904419,174.761383 639.801208,172.710083 649.780396,171.203796   C660.768066,169.545273 671.806641,168.129028 682.868164,167.085922   C690.969604,166.321945 699.158264,166.533051 707.282654,165.953049   C723.738708,164.778259 740.158630,162.764038 756.629639,162.243423   C768.672546,161.862778 780.797485,163.024384 792.842529,164.021576   C809.368774,165.389771 825.873962,167.076935 842.351501,168.950104   C861.384399,171.113739 880.410095,173.395386 899.377808,176.060715   C915.887878,178.380676 932.388245,180.913391 948.757019,184.059280   C971.156372,188.364166 993.443054,193.264069 1015.748291,198.047592   C1036.049194,202.401291 1056.340454,206.808731 1076.579468,211.439270   C1092.564087,215.096405 1108.435059,219.248032 1124.408447,222.956406   C1137.599976,226.018951 1150.861328,228.783325 1164.103027,231.626877   C1180.359985,235.117905 1196.600220,238.695862 1212.901245,241.969910   C1226.576904,244.716660 1240.304565,247.226242 1254.055298,249.570755   C1265.842407,251.580475 1277.756226,252.886459 1289.492310,255.138138   C1295.440186,256.279266 1302.195312,255.302246 1307.051636,260.471985   C1307.656006,261.115387 1309.231445,260.975861 1310.357788,260.980133   C1323.606812,261.030487 1336.855835,261.053772 1350.104980,261.035034   C1351.379761,261.033234 1353.244263,261.175171 1353.829956,260.444672   C1356.886475,256.631805 1361.168945,256.712219 1365.387939,255.762939   C1385.805786,251.168945 1405.496826,244.589462 1424.350342,235.198669   C1443.322144,225.748917 1460.109009,213.445755 1475.297241,198.961716   C1483.007324,191.609116 1489.816406,183.239319 1496.508911,174.908508   C1507.251587,161.535995 1516.280884,147.044815 1522.997559,131.189331   C1525.290894,125.775566 1527.663452,120.395439 1530.000000,115.000000  z"
   id="path910" />

</svg>
