<?xml version="1.0" encoding="UTF-8" standalone="no"?>
<svg
   version="1.1"
   id="Layer_1"
   x="0px"
   y="0px"
   width="100%"
   viewBox="0 0 685 500"
   enable-background="new 0 0 685 500"
   xml:space="preserve"
   sodipodi:docname="main_shape.svg"
   inkscape:version="1.2.2 (732a01da63, 2022-12-09)"
   xmlns:inkscape="http://www.inkscape.org/namespaces/inkscape"
   xmlns:sodipodi="http://sodipodi.sourceforge.net/DTD/sodipodi-0.dtd"
   xmlns="http://www.w3.org/2000/svg"
   xmlns:svg="http://www.w3.org/2000/svg"><defs
   id="defs519" /><sodipodi:namedview
   id="namedview517"
   pagecolor="#ffffff"
   bordercolor="#000000"
   borderopacity="0.25"
   inkscape:showpageshadow="2"
   inkscape:pageopacity="0.0"
   inkscape:pagecheckerboard="0"
   inkscape:deskcolor="#d1d1d1"
   showgrid="false"
   inkscape:zoom="1.1370277"
   inkscape:cx="461.73017"
   inkscape:cy="242.29841"
   inkscape:window-width="1920"
   inkscape:window-height="991"
   inkscape:window-x="-9"
   inkscape:window-y="-9"
   inkscape:window-maximized="1"
   inkscape:current-layer="Layer_1" />
<path
   fill="#FFCE00"
   opacity="1.000000"
   stroke="none"
   d=" M477.000000,1.000001   C517.687561,1.000000 558.375122,1.000000 599.192200,1.329581   C601.486938,2.116669 603.666687,2.514872 605.815125,3.040835   C627.962280,8.462690 647.283691,18.253521 662.150513,36.404415   C676.618774,54.068665 683.785339,74.194229 683.870422,96.543716   C684.202026,183.656479 684.028015,270.771179 684.030640,358.361023   C684.027649,370.928314 684.035950,383.019745 684.024658,395.572266   C683.671204,402.776489 683.577454,409.541809 682.958862,416.258759   C681.013000,437.388336 672.086609,455.464844 657.663757,470.712708   C642.904297,486.316376 624.461853,495.315735 603.373230,499.066681   C602.495300,499.222870 601.787231,500.333862 601.000000,501.000000   C594.312378,501.000000 587.624695,501.000000 580.807861,500.668152   C580.010742,499.902557 579.388367,499.195435 578.668213,499.075653   C566.165649,496.996063 553.551575,495.463226 541.159851,492.866272   C515.672424,487.524689 490.272736,481.751648 464.891785,475.917419   C434.801056,469.000549 404.649902,462.569489 373.800018,459.940277   C359.456940,458.717865 345.222229,456.373718 330.717560,457.923309   C320.758392,458.987305 310.654968,458.819824 300.737427,460.125275   C288.035950,461.797211 275.414246,464.181335 262.836182,466.655182   C249.979172,469.183838 237.215759,472.188721 224.412781,474.991425   C201.022690,480.111847 177.664627,485.384369 154.233047,490.307068   C139.168518,493.471924 123.992203,496.103241 108.885826,499.074585   C108.159103,499.217529 107.624214,500.335876 107.000000,501.000000   C99.645744,501.000000 92.291496,501.000000 84.806221,500.682220   C81.281891,499.505096 77.859367,498.746246 74.500023,497.770020   C52.966156,491.512543 34.478596,480.531281 20.902195,462.326233   C11.164131,449.268158 4.479768,434.858826 2.921625,418.380157   C2.841592,417.533752 1.665685,416.791016 1.000000,416.000000   C1.000000,362.979095 1.000000,309.958221 1.238744,256.130371   C1.652004,249.258591 1.981474,243.192841 1.943651,237.129349   C1.920499,233.417755 1.333680,229.709671 1.000000,226.000000   C1.000000,179.645767 1.000000,133.291550 1.329914,86.807495   C2.440073,83.433075 3.356001,80.214287 3.978795,76.939743   C8.401226,53.687397 20.653452,35.313168 39.401932,21.328932   C52.791424,11.341891 67.786293,4.747478 84.619843,2.893564   C85.143066,2.835941 85.542732,1.656466 86.000000,1.000000   C90.689255,1.000000 95.378510,1.000000 100.871216,1.240426   C103.313782,1.653916 104.952881,1.978175 106.592041,1.978495   C228.140381,2.002175 349.688751,2.004829 471.237061,1.958736   C473.158173,1.958007 475.079041,1.333442 477.000000,1.000001  z"
   id="path498" />





<path
   fill="#FFD10F"
   opacity="1.000000"
   stroke="none"
   d=" M476.531342,1.000001   C475.079041,1.333442 473.158173,1.958007 471.237061,1.958736   C349.688751,2.004829 228.140381,2.002175 106.592041,1.978495   C104.952881,1.978175 103.313782,1.653916 101.337326,1.240426   C226.020889,1.000000 351.041779,1.000000 476.531342,1.000001  z"
   id="path510" />
<path
   fill="#FFD10F"
   opacity="1.000000"
   stroke="none"
   d=" M686.000000,394.531342   C685.600159,394.922302 685.200317,394.844604 684.422363,394.939056   C684.035950,383.019745 684.027649,370.928314 684.030640,358.361023   C684.529846,358.148438 685.017639,358.411713 685.752747,358.337524   C686.000000,370.020905 686.000000,382.041779 686.000000,394.531342  z"
   id="path512" />
<path
   fill="#FFD00B"
   opacity="1.000000"
   stroke="none"
   d=" M1.000000,226.468658   C1.333680,229.709671 1.920499,233.417755 1.943651,237.129349   C1.981474,243.192841 1.652004,249.258591 1.238744,255.661697   C1.000000,246.312439 1.000000,236.624878 1.000000,226.468658  z"
   id="path514" />
</svg>
